<svg xmlns="http://www.w3.org/2000/svg" width="430" height="430" style="width:100%;height:100%;transform:translate3d(0,0,0);content-visibility:visible" viewBox="0 0 430 430"><defs><mask id="o" mask-type="alpha"><g filter="url(#a)"><path fill="#fff" d="M0 0h430v430H0z" opacity="0"/><use xmlns:ns1="http://www.w3.org/1999/xlink" ns1:href="#b"/></g></mask><mask id="n" mask-type="alpha"><use xmlns:ns2="http://www.w3.org/1999/xlink" ns2:href="#c"/></mask><mask id="l" mask-type="alpha"><g filter="url(#d)"><path fill="#fff" d="M0 0h430v430H0z" opacity="0"/><use xmlns:ns3="http://www.w3.org/1999/xlink" ns3:href="#e"/></g></mask><mask id="k" mask-type="alpha"><use xmlns:ns4="http://www.w3.org/1999/xlink" ns4:href="#f"/></mask><mask id="j" mask-type="alpha"><use xmlns:ns5="http://www.w3.org/1999/xlink" ns5:href="#g"/></mask><g id="c" style="display:none"><path/><path style="mix-blend-mode:multiply"/></g><g id="e" style="display:block"><path d="M330.232 123.278h-70.198l.231 259.581h70.199l-.232-259.581zm0-138.411h-70.198v-.662h70.198v.662z"/><path fill-opacity="0" stroke="#000" stroke-width="0" d="M34.768-142.384H-35.43l.231 259.581H35l-.232-259.581zm0-138.411H-35.43v-.662h70.198v.662z" style="mix-blend-mode:soft-light" transform="translate(295.464 265.662)"/></g><g id="f" style="display:none"><path/><path fill-opacity="0" style="mix-blend-mode:soft-light"/></g><g id="g" opacity="1"><path fill="red" d="M132 47 80 387h285V49l-233-2z"/><path fill-opacity="0" stroke="#08A88A" stroke-width="0" d="m-83-168-52 340h285v-338l-233-2z" style="mix-blend-mode:soft-light" transform="translate(215 215)"/></g><clipPath id="h"><path d="M0 0h430v430H0z"/></clipPath><clipPath id="m"><path d="M0 0h430v430H0z"/></clipPath><clipPath id="i"><path d="M0 0h430v430H0z"/></clipPath><filter id="a" width="100%" height="100%" x="0%" y="0%" filterUnits="objectBoundingBox"><feComponentTransfer in="SourceGraphic"><feFuncA tableValues="1.0 0.0" type="table"/></feComponentTransfer></filter><filter id="d" width="100%" height="100%" x="0%" y="0%" filterUnits="objectBoundingBox"><feComponentTransfer in="SourceGraphic"><feFuncA tableValues="1.0 0.0" type="table"/></feComponentTransfer></filter><path id="b" style="display:none"/></defs><g clip-path="url(#h)"><g clip-path="url(#i)" style="display:block"><path fill="#646E78" d="M140.4 216.37H56v129.8c0 19.687 15.756 35.654 35.361 35.994.16.003 24.758.005 37.015.006h6.78" class="tertiary" style="display:block"/><path class="tertiary" style="display:none"/><path fill="none" stroke="#121331" stroke-linecap="round" stroke-linejoin="round" stroke-width="7" d="m-51.653 167.727-71.763.186" class="primary" style="display:block" transform="translate(179.401 49.437)"/><g fill="#EBE6EF" style="display:block"><path d="m130.3 44.308 231.2.259a2.998 2.998 0 0 1 3 3l-.2 294.833c0 9.548-1.3 22.975-9.794 30.206-7.27 6.189-15.908 10.544-25.456 10.544h-237a36 36 0 0 0 25.456-10.544c6.751-6.751 9.794-20.658 9.794-30.206V47.308a3 3 0 0 1 3-3z" class="secondary"/><path fill-opacity=".5" d="M26.77 133.365v-297.822l-14.49-.22a2.989 2.989 0 0 0-2.154.861 2.998 2.998 0 0 0-.896 2.139v295.042c0 4.728-.181 14.159-1.99 18.527a35.993 35.993 0 0 1-19.483 19.483 36.004 36.004 0 0 1-13.777 2.74h17.54a36 36 0 0 0 25.456-10.544c6.751-6.751 9.794-20.658 9.794-30.206z" class="secondary" style="mix-blend-mode:multiply" transform="translate(117.9 209.01)"/></g><g style="display:none"><path class="secondary"/><path class="secondary" style="mix-blend-mode:multiply"/></g><g mask="url(#j)" style="display:block"><path fill="none" stroke="#121331" stroke-linecap="round" stroke-linejoin="round" stroke-width="7" d="M-50-124.172h165.563M-50 35.828h165.563M-50 75.828h165.563m-165.563 40h165.563M-50-84.172l62.563-.172M-50-44.172l62.563-.172M-50-4.172l62.563-.172" class="primary" style="mix-blend-mode:soft-light" transform="translate(215 215)"/><path fill="#F24C00" d="m267.939 131.801.062 78.324h62.625l-.124-78.224-62.563-.1z" class="quaternary"/><path fill="none" stroke="#121331" stroke-linecap="round" stroke-linejoin="round" stroke-width="6" d="m267.939 131.801.062 78.324h62.625l-.124-78.224-62.563-.1z" class="primary"/></g><g mask="url(#k)" style="display:none"><path fill="none" class="primary" style="mix-blend-mode:soft-light"/><path class="quaternary"/><path fill="none" class="primary"/></g><path fill="none" stroke="#121331" stroke-linecap="round" stroke-linejoin="round" stroke-width="7" d="M-87.429-170.856v302.781c0 19.875-16.112 35.988-35.987 35.988 0 0 0 0 0 0s0 0 0 0c-19.875 0-35.988-16.113-35.988-35.988V2.163" class="primary" style="display:block" transform="translate(215 215)"/><g mask="url(#l)" style="display:block"><path fill="none" stroke="#121331" stroke-linecap="round" stroke-linejoin="round" stroke-width="7" d="M364.571 44.144v302.781c0 19.875-16.112 35.988-35.987 35.988 0 0 0 0 0 0s0 0 0 0c-19.875 0-35.988-16.113-35.988-35.988V217.163" class="primary"/></g><path fill="none" class="primary" style="display:none"/><path fill="none" stroke="#121331" stroke-linecap="round" stroke-linejoin="round" stroke-width="7" d="M113.248 167.913h-236.664" class="primary" style="display:block" transform="translate(215 215)"/><path fill="none" class="primary" style="display:none"/><path fill="none" stroke="#121331" stroke-linecap="round" stroke-linejoin="round" stroke-width="7" d="M113.248 167.913h-236.664" class="primary" style="display:block" transform="translate(251.5 -123.5)"/></g><g clip-path="url(#m)" style="display:none"><path class="tertiary" style="display:none"/><path fill="none" class="primary" style="display:none"/><g style="display:none"><path class="secondary"/><path class="secondary" style="mix-blend-mode:multiply"/></g><g mask="url(#n)" style="display:none"><path fill="none" class="primary" style="mix-blend-mode:soft-light"/><path class="quaternary"/><path fill="none" class="primary"/></g><g mask="url(#o)" style="display:none"><path class="tertiary"/><path class="tertiary"/><path fill="none" class="primary"/></g><path fill="none" class="primary" style="display:none"/></g></g></svg>